<svg xmlns="http://www.w3.org/2000/svg" width="192" height="31" viewBox="0 0 192 31"><g><g><path fill="#212212" d="M184.29 23.3c-2.5 0-4.39-.64-5.67-1.92-1.28-1.28-1.92-3.115-1.92-5.505 0-2.39.685-4.23 2.055-5.52 1.37-1.29 3.295-1.935 5.775-1.935 2.48 0 4.33.595 5.55 1.785 1.22 1.19 1.83 3.005 1.83 5.445 0 5.1-2.54 7.65-7.62 7.65zm1.86-6.21v-2.55c0-1.94-.105-3.355-.315-4.245-.21-.89-.695-1.335-1.455-1.335-.44 0-.795.125-1.065.375-.27.25-.465.665-.585 1.245-.18.9-.27 2.27-.27 4.11v2.34c0 2.18.065 3.49.195 3.93.13.44.265.8.405 1.08.22.48.65.72 1.29.72.78 0 1.29-.45 1.53-1.35.18-.64.27-2.08.27-4.32zm-19.68-4.32v1.62c0 1.34.115 2.25.345 2.73.23.48.58.72 1.05.72.47 0 .81-.235 1.02-.705.21-.47.315-1.435.315-2.895v-1.47c0-1.56-.1-2.585-.3-3.075-.2-.49-.535-.735-1.005-.735-.47 0-.825.255-1.065.765s-.36 1.525-.36 3.045zm6.36-5.61l.84-.51c.12-.62-.12-.93-.72-.93-.86 0-1.29.66-1.29 1.98 0 .52.07 1.12.21 1.8 1.52 1.02 2.28 2.325 2.28 3.915 0 1.59-.55 2.825-1.65 3.705-1.1.88-2.59 1.32-4.47 1.32-.78 0-1.59-.08-2.43-.24-.88.56-1.32.98-1.32 1.26s.64.42 1.92.42h3.06c4.54 0 6.81 1.63 6.81 4.89 0 1.76-.685 3.155-2.055 4.185-1.37 1.03-3.505 1.545-6.405 1.545-4.94 0-7.41-1.07-7.41-3.21 0-1.16.77-1.96 2.31-2.4l1.8.81a6.21 6.21 0 0 0-.24 1.65c0 1.72 1.28 2.58 3.84 2.58 1.56 0 2.76-.29 3.6-.87.84-.58 1.26-1.3 1.26-2.16 0-.86-.255-1.435-.765-1.725-.51-.29-1.525-.435-3.045-.435h-2.91c-1.62 0-2.78-.27-3.48-.81-.7-.54-1.05-1.205-1.05-1.995s.25-1.45.75-1.98 1.39-1.185 2.67-1.965c-2.32-.66-3.48-2.18-3.48-4.56 0-1.5.54-2.71 1.62-3.63 1.08-.92 2.7-1.38 4.86-1.38 1.3 0 2.41.25 3.33.75-.12-.54-.18-1.03-.18-1.47 0-1.12.3-1.93.9-2.43.6-.5 1.27-.75 2.01-.75.74 0 1.335.195 1.785.585.45.39.675.925.675 1.605 0 .68-.18 1.185-.54 1.515-.36.33-.795.495-1.305.495-.51 0-.93-.135-1.26-.405-.33-.27-.505-.655-.525-1.155zM152.34 23.3c-2.5 0-4.39-.64-5.67-1.92-1.28-1.28-1.92-3.115-1.92-5.505 0-2.39.685-4.23 2.055-5.52 1.37-1.29 3.295-1.935 5.775-1.935 2.48 0 4.33.595 5.55 1.785 1.22 1.19 1.83 3.005 1.83 5.445 0 5.1-2.54 7.65-7.62 7.65zm1.86-6.21v-2.55c0-1.94-.105-3.355-.315-4.245-.21-.89-.695-1.335-1.455-1.335-.44 0-.795.125-1.065.375-.27.25-.465.665-.585 1.245-.18.9-.27 2.27-.27 4.11v2.34c0 2.18.065 3.49.195 3.93.13.44.265.8.405 1.08.22.48.65.72 1.29.72.78 0 1.29-.45 1.53-1.35.18-.64.27-2.08.27-4.32zM126.96 2h10.8v.66h-3.18v19.68h1.08c1.7 0 3.055-.52 4.065-1.56 1.01-1.04 2.035-2.64 3.075-4.8h.63l-.57 7.02h-15.9v-.66h1.77V2.66h-1.77zm-16.05 16.71V9.26h-1.65v-.54h1.65V4.85l5.58-1.38v5.25h3.9v.54h-3.9v10.11c0 .94.095 1.63.285 2.07.19.44.585.66 1.185.66.6 0 1.125-.3 1.575-.9.45-.6.745-1.42.885-2.46l.51.06c-.16 1.38-.6 2.475-1.32 3.285-.72.81-1.91 1.215-3.57 1.215s-2.93-.33-3.81-.99c-.88-.66-1.32-1.86-1.32-3.6zm-7.59-9.75c-.88 0-1.51.48-1.89 1.44-.38.96-.57 2.55-.57 4.77v1.56c0 1.98.22 3.4.66 4.26.44.86 1.25 1.29 2.43 1.29 1.18 0 2.12-.4 2.82-1.2.7-.8 1.15-1.71 1.35-2.73l.54.06c-.38 1.72-1.08 2.96-2.1 3.72-1.04.78-2.47 1.17-4.29 1.17-2.32 0-4.1-.625-5.34-1.875-1.24-1.25-1.86-3.08-1.86-5.49s.705-4.265 2.115-5.565c1.41-1.3 3.375-1.95 5.895-1.95 1.78 0 3.14.345 4.08 1.035s1.41 1.555 1.41 2.595c0 1.04-.225 1.8-.675 2.28-.45.48-1.07.72-1.86.72s-1.425-.21-1.905-.63c-.48-.42-.72-1.04-.72-1.86 0-.36.05-.72.15-1.08h.99c.14-.4.21-.76.21-1.08 0-.96-.48-1.44-1.44-1.44zM84.45 19.64c0 1.04.055 1.71.165 2.01.11.3.32.45.63.45s.6-.255.87-.765.405-1.215.405-2.115v-2.79h-.21c-1.24 0-1.86.91-1.86 2.73zm1.2-3.69h.87v-2.31c0-1.9-.105-3.175-.315-3.825-.21-.65-.615-.975-1.215-.975-.36 0-.685.095-.975.285-.29.19-.435.45-.435.78s.06.665.18 1.005h.75c.16.42.24.925.24 1.515 0 .59-.25 1.1-.75 1.53-.5.43-1.13.645-1.89.645-1.72 0-2.58-.83-2.58-2.49 0-2.46 2.09-3.69 6.27-3.69 2.38 0 4.025.405 4.935 1.215.91.81 1.365 2.295 1.365 4.455v6.09c0 1.04.29 1.56.87 1.56.68 0 1.08-1.03 1.2-3.09l.45.03c-.08 1.76-.41 2.97-.99 3.63-.58.66-1.53.99-2.85.99-2.4 0-3.78-.74-4.14-2.22-.26.76-.65 1.32-1.17 1.68-.52.36-1.28.54-2.28.54-2.96 0-4.44-1.21-4.44-3.63 0-1.42.565-2.395 1.695-2.925 1.13-.53 2.865-.795 5.205-.795zM73.62 9.56c-.74 0-1.39.48-1.95 1.44s-.84 2.1-.84 3.42v8.04h2.13V23H63.6v-.54h1.65V9.26H63.6v-.54h7.23v2.88c.26-1.02.76-1.805 1.5-2.355s1.58-.825 2.52-.825 1.705.265 2.295.795c.59.53.885 1.28.885 2.25s-.22 1.715-.66 2.235c-.44.52-1.115.78-2.025.78-.91 0-1.58-.3-2.01-.9-.43-.6-.485-1.43-.165-2.49h1.08c.5-1.02.29-1.53-.63-1.53zm-20.34 9.15V9.26h-1.65v-.54h1.65V4.85l5.58-1.38v5.25h3.9v.54h-3.9v10.11c0 .94.095 1.63.285 2.07.19.44.585.66 1.185.66.6 0 1.125-.3 1.575-.9.45-.6.745-1.42.885-2.46l.51.06c-.16 1.38-.6 2.475-1.32 3.285-.72.81-1.91 1.215-3.57 1.215s-2.93-.33-3.81-.99c-.88-.66-1.32-1.86-1.32-3.6zM39.45 23.3v-5.37h.36c.52 1.74 1.22 2.96 2.1 3.66.88.7 1.98 1.05 3.3 1.05 2.04 0 3.06-.65 3.06-1.95 0-.56-.25-.98-.75-1.26-.78-.44-1.78-.78-3-1.02-1.36-.36-2.5-.84-3.42-1.44-1.1-.72-1.65-1.86-1.65-3.42 0-1.56.48-2.805 1.44-3.735.96-.93 2.24-1.395 3.84-1.395.98 0 1.99.23 3.03.69.38.16.67.24.87.24.2 0 .37-.07.51-.21.14-.14.31-.4.51-.78h.33v4.59h-.36c-1.02-2.6-2.6-3.9-4.74-3.9-.94 0-1.64.165-2.1.495-.46.33-.69.745-.69 1.245 0 .3.07.535.21.705.14.17.25.295.33.375.08.08.21.165.39.255.18.09.33.16.45.21.12.05.305.115.555.195.25.08.435.13.555.15 1.36.34 2.34.635 2.94.885.6.25 1.17.555 1.71.915 1.1.76 1.65 1.985 1.65 3.675 0 1.69-.5 2.97-1.5 3.84-1 .87-2.37 1.305-4.11 1.305-1.24 0-2.44-.29-3.6-.87-.24-.16-.43-.24-.57-.24-.44 0-.87.37-1.29 1.11zM28.35.5V11c.76-1.72 2.06-2.58 3.9-2.58 3.74 0 5.61 2.49 5.61 7.47 0 2.54-.515 4.41-1.545 5.61-1.03 1.2-2.575 1.8-4.635 1.8-1.04 0-1.835-.16-2.385-.48-.55-.32-.925-.85-1.125-1.59L27.96 23h-6.84v-.54h1.65V1.04h-1.65V.5zm3.72 14.43c0-2.06-.1-3.445-.3-4.155-.2-.71-.59-1.065-1.17-1.065s-1.1.36-1.56 1.08c-.46.72-.69 1.71-.69 2.97v5.58c0 .86.175 1.59.525 2.19.35.6.85.9 1.5.9s1.095-.44 1.335-1.32c.24-.88.36-2.42.36-4.62zM7.92 7.43L5.1 15.29h5.43zm5.04 15l-2.19-6.48H4.83l-2.31 6.48h2.25V23H.18v-.57h1.41L9.24 1.82h2.46l7.56 20.61h1.38V23h-9.81v-.57z"/></g></g></svg>