<svg xmlns="http://www.w3.org/2000/svg" width="60" height="60" viewBox="0 0 60 60"><defs><radialGradient id="84b5a" cx="15.58" cy="12.37" r="40.53" gradientUnits="userSpaceOnUse"><stop offset="0" stop-color="#4a63ab"/><stop offset="1" stop-color="#bf57a8"/></radialGradient><linearGradient id="84b5b" x1="0" x2="57" y1="30.5" y2="30.5" gradientUnits="userSpaceOnUse"><stop offset="0" stop-color="#363f9a"/><stop offset="1" stop-color="#bf57a8"/></linearGradient><linearGradient id="84b5c" x1="6.59" x2="17.65" y1="13.2" y2="9.64" gradientUnits="userSpaceOnUse"><stop offset="0" stop-color="#b7268f"/><stop offset="1" stop-color="#25a8cc" stop-opacity=".2"/></linearGradient><linearGradient id="84b5d" x1="22.49" x2="35.16" y1="4.15" y2="57.18" gradientUnits="userSpaceOnUse"><stop offset="0" stop-color="#363f9a"/><stop offset="1" stop-color="#bf57a8"/></linearGradient><linearGradient id="84b5e" x1="51.08" x2="15.37" y1="14.58" y2="-8.47" gradientUnits="userSpaceOnUse"><stop offset="0" stop-color="#b7268f"/><stop offset="1" stop-color="#25a8cc"/></linearGradient><linearGradient id="84b5f" x1="28.83" x2="27.17" y1=".29" y2="-.29" gradientUnits="userSpaceOnUse"><stop offset="0" stop-color="#b7268f"/><stop offset="1" stop-color="#25a8cc"/></linearGradient><linearGradient id="84b5g" x1="43.04" x2="8.33" y1="25.26" y2="10.96" gradientUnits="userSpaceOnUse"><stop offset="0" stop-color="#b7268f"/><stop offset="1" stop-color="#25a8cc"/></linearGradient><linearGradient id="84b5h" x1="33.42" x2="14.5" y1="9.46" y2="27.72" gradientUnits="userSpaceOnUse"><stop offset="0" stop-color="#b7268f"/><stop offset="1" stop-color="#25a8cc"/></linearGradient><linearGradient id="84b5i" x1="17.02" x2="26.58" y1="29.42" y2="31.73" gradientUnits="userSpaceOnUse"><stop offset="0" stop-color="#b7268f"/><stop offset="1" stop-color="#25a8cc" stop-opacity="0"/></linearGradient><linearGradient id="84b5j" x1="38.47" x2="10.45" y1="26.46" y2="15.15" gradientUnits="userSpaceOnUse"><stop offset="0" stop-color="#b7268f"/><stop offset="1" stop-color="#25a8cc"/></linearGradient><linearGradient id="84b5k" x1="39.88" x2="39.18" y1="15.97" y2="25" gradientUnits="userSpaceOnUse"><stop offset="0" stop-color="#b7268f"/><stop offset="1" stop-color="#25a8cc" stop-opacity="0"/></linearGradient><linearGradient id="84b5l" x1="45.98" x2="13.39" y1="45.76" y2="12.31" gradientUnits="userSpaceOnUse"><stop offset="0" stop-color="#b33798"/><stop offset="1" stop-color="#f249a2"/></linearGradient><radialGradient id="84b5m" cx="39.98" cy="18.72" r="17.53" gradientUnits="userSpaceOnUse"><stop offset="0" stop-color="#f249a2"/><stop offset="1" stop-color="#f249a2" stop-opacity="0"/></radialGradient><linearGradient id="84b5n" x1="36.06" x2="28.3" y1="44.32" y2="17.66" gradientUnits="userSpaceOnUse"><stop offset="0" stop-color="#b33798"/><stop offset="1" stop-color="#f249a2"/></linearGradient><linearGradient id="84b5o" x1="35.9" x2="27.82" y1="43.8" y2="16.02" gradientUnits="userSpaceOnUse"><stop offset="0" stop-color="#b33798"/><stop offset="1" stop-color="#f249a2"/></linearGradient></defs><g><g><g><path fill="url(#84b5a)" d="M37.025 59.158l.282-.072c.21-.054.426-.108.636-.168a31.434 31.434 0 0 0 1.848-.576c.03-.012.06-.024.09-.03a29.478 29.478 0 0 0 4.061-1.77c.12-.067.246-.133.366-.199l.39-.21c13.56-7.599 19.182-24.315 12.462-38.84C51.28 4.593 39.425-.06 29.327 0 18.28.067 7.974 8.848 12.66 19.2 15.43 3.987 42.574.518 50.926 18.92c6.444 14.19-.036 29.417-13.061 33.66C16.12 59.657-1.128 42.25.936 22.528v.006l-.372 1.656A29.844 29.844 0 0 0 0 29.994c0 5.87 1.686 11.344 4.596 15.965.024.042.054.084.078.126l.198.307a29.753 29.753 0 0 0 9.011 8.913c.072.048.144.09.216.138a29.69 29.69 0 0 0 11.664 4.255c.12.018.24.036.366.048l.144.018a29.64 29.64 0 0 0 9.642-.36l.078-.018c.342-.066.69-.144 1.032-.228z"/></g><g opacity=".34"><path fill="url(#84b5b)" d="M4.662 45.147c.024.036.048.079.072.115.06.09.12.187.186.277a27.65 27.65 0 0 0 8.23 8.03l.2.127c.066.042.132.085.204.127a28.338 28.338 0 0 0 10.92 3.894c.114.018.228.03.337.049l.132.018a28.429 28.429 0 0 0 9.097-.338c.325-.066.65-.133.969-.21.09-.019.174-.043.264-.067.199-.048.397-.103.596-.157a27.24 27.24 0 0 0 1.727-.525c.03-.012.06-.018.084-.03a28.614 28.614 0 0 0 3.796-1.615l.343-.181c.12-.067.24-.127.361-.193 12.7-6.958 18.567-22.675 12.28-35.962C48.955 6.882 37.83 2.234 27.807 3.102c-8.928.771-14.536 5.763-16.792 10.466-.09 1.809.259 3.714 1.15 5.685C14.943 3.97 42.161.485 50.536 18.97c6.462 14.252-.036 29.547-13.098 33.81C15.636 59.894-1.66 42.41.408 22.6c-1.528 9.603 1.534 18.315 4.254 22.547z"/></g><g opacity=".67"><path fill="url(#84b5c)" d="M14.965 13.814C14.144 6.966 20.41 2.32 23 1c-7.61 2.13-13.652 11.051-9.81 17 .219-1.18 1.034-3.106 1.775-4.186z"/></g><g opacity=".34"><g opacity=".34"><path fill="url(#84b5d)" d="M.456 22.632c-.534 3.363-.528 6.805-.042 10.175.247 1.685.6 3.352 1.087 4.989a32.451 32.451 0 0 0 1.808 4.772c.367.77.763 1.522 1.214 2.244.114.18.222.361.342.536.114.18.24.355.36.53l.18.264.187.259c.126.174.246.343.378.511a27.16 27.16 0 0 0 3.448 3.75 28.254 28.254 0 0 0 8.63 5.325 28.759 28.759 0 0 0 6.145 1.63l.313.049.318.042.63.072c.848.09 1.694.138 2.541.15 3.4.06 6.8-.511 10-1.648A28.653 28.653 0 0 0 53.288 43.44a27.917 27.917 0 0 0 3.34-9.587c.259-1.679.355-3.388.289-5.09a26 26 0 0 0-.697-5.05c-.787-3.309-2.246-6.45-4.168-9.254a26.707 26.707 0 0 0-3.28-3.9 25.33 25.33 0 0 0-1.904-1.69 26.46 26.46 0 0 0-2.06-1.499 26.482 26.482 0 0 0-9.394-3.79 27.517 27.517 0 0 0-5.063-.506c-1.7-.012-3.4.132-5.07.445-1.67.313-3.309.8-4.865 1.48a19.937 19.937 0 0 0-4.378 2.588 18.383 18.383 0 0 0-3.55 3.646 14.642 14.642 0 0 1 0 0 18.22 18.22 0 0 1 3.544-3.652 20.344 20.344 0 0 1 4.378-2.594 22.666 22.666 0 0 1 4.871-1.486 26.104 26.104 0 0 1 5.076-.451c1.7.006 3.4.18 5.07.5 3.339.649 6.558 1.93 9.411 3.79.715.464 1.406.963 2.066 1.499.667.53 1.304 1.095 1.91 1.696a26.855 26.855 0 0 1 3.286 3.906 29.116 29.116 0 0 1 2.516 4.44 26.339 26.339 0 0 1 1.664 4.827 26.06 26.06 0 0 1 .697 5.054 27.301 27.301 0 0 1-.282 5.097 28.01 28.01 0 0 1-3.34 9.604 28.657 28.657 0 0 1-15.322 12.86 28.561 28.561 0 0 1-10.019 1.648c-.853-.012-1.7-.066-2.546-.156l-.637-.072-.318-.042-.319-.048c-.42-.06-.84-.139-1.255-.217a28.844 28.844 0 0 1-4.895-1.42 28.317 28.317 0 0 1-8.637-5.338 27.558 27.558 0 0 1-3.448-3.755c-.132-.168-.252-.343-.378-.511l-.186-.259-.18-.265c-.12-.174-.24-.349-.361-.53-.12-.174-.228-.36-.342-.54-.45-.723-.847-1.481-1.214-2.251a32.924 32.924 0 0 1-1.802-4.778A36.364 36.364 0 0 1 .415 32.8a33.758 33.758 0 0 1 .041-10.17z"/></g></g><g><path fill="url(#84b5e)" d="M28 .04c.331-.04.662-.06 1-.08"/></g><g><path fill="url(#84b5f)" d="M27 .06c.652-.054 1.32-.096 2-.12"/></g><g><path fill="url(#84b5g)" d="M42.88 27.32c-5.405 11.201-22.095 10.187-29.027 4.666C2.387 22.838 7.98.77 28.766 0 12.362.486 6.811 19.23 18.004 25.881c7.787 4.629 18.877 1.55 16.731-6.08l.055-1.95 7.393 1.634c2.921 2.32 1.673 5.09.697 7.836z"/></g><g opacity=".21"><path fill="url(#84b5h)" d="M35.165 19.28c2.126 7.51-8.866 10.54-16.584 5.985-10.5-6.2-6.133-23.053 8.139-25.247C26.714.006 26.708 0 26.702 0a23.663 23.663 0 0 0-5.683 1.429c-1.772.825-3.808 2.134-5.892 4.209-5.97 7.843-5.514 17.074 1.706 22.682 7.496 5.829 26.327 1.997 22.71-10.002l-4.324-.95z"/></g><g><path fill="url(#84b5i)" d="M18.066 26c-.872 1.846-.885 2.512-1.03 4.559a18.899 18.899 0 0 0-.03 1.657C19.024 33.526 21.296 34.8 25 35c-1.164-2.389-1.406-6.387-.406-7.685-1.794-.088-6.273-1.138-6.528-1.315z"/></g><g opacity=".26"><g opacity=".26"><path fill="url(#84b5j)" d="M15.139 6.01c-1.45 1.882-2.618 3.982-3.331 6.235-.36 1.124-.6 2.289-.707 3.46a14.467 14.467 0 0 0-.048 1.764c.006.294.03.588.054.882.03.294.066.588.113.877a13.363 13.363 0 0 0 1.013 3.382 13.643 13.643 0 0 0 1.863 3.012c.372.464.773.9 1.199 1.317.425.418.875.812 1.342 1.177.923.753 1.99 1.318 3.11 1.741 1.12.424 2.295.706 3.48.87 1.187.171 2.392.224 3.59.183a20.861 20.861 0 0 0 3.571-.441 17.766 17.766 0 0 0 3.421-1.083c1.097-.476 2.14-1.082 3.062-1.84.917-.76 1.708-1.677 2.247-2.73a7.44 7.44 0 0 0 .617-1.653c.138-.57.21-1.165.216-1.753.012-1.182-.228-2.353-.623-3.47.401 1.111.64 2.282.635 3.47a7.931 7.931 0 0 1-.21 1.759 7.516 7.516 0 0 1-.611 1.665c-.54 1.058-1.33 1.982-2.253 2.74a13.052 13.052 0 0 1-3.068 1.854 17.438 17.438 0 0 1-3.427 1.088 20.864 20.864 0 0 1-7.178.27 16.578 16.578 0 0 1-3.493-.87c-1.12-.424-2.193-1-3.122-1.753-.467-.37-.917-.765-1.342-1.182a14.865 14.865 0 0 1-1.198-1.324 14.131 14.131 0 0 1-1.864-3.03 13.448 13.448 0 0 1-1.012-3.393 14.615 14.615 0 0 1-.114-.877c-.024-.294-.048-.588-.054-.882-.018-.589 0-1.183.054-1.77.108-1.177.347-2.342.713-3.466.719-2.258 1.9-4.353 3.355-6.229z"/></g></g><g><path fill="url(#84b5k)" d="M35.2 22.494c2.155-.705 5.317.231 6.8 2.075.59.73.883 1.56.995 2.431.93-2.597 1.996-5.211-.76-7.405L35.054 18 35 19.903c.318 1.144.288 1.844.2 2.591z"/></g><g><path fill="#fff" d="M28 .04c.331-.04.662-.06 1-.08"/></g><g><path fill="url(#84b5l)" d="M42.492 27.126C46.202 20.548 41.274 8.99 27.83 11.3c-14.735 2.526-20.508 22.596-7.907 33.11 9.668 8.072 27.746 1.875 25.954-12.027-4.294 10.749-22.396 11.936-23.572-1.17-1.333-14.843 23.228-14.07 20.188-4.087z"/></g><g><path fill="url(#84b5m)" d="M42.492 27.126C46.202 20.548 41.274 8.99 27.83 11.3c-14.735 2.526-20.508 22.596-7.907 33.11 9.668 8.072 27.746 1.875 25.954-12.027-4.294 10.749-22.396 11.936-23.572-1.17-1.333-14.843 23.228-14.07 20.188-4.087z"/></g><g opacity=".33"><path fill="url(#84b5n)" d="M46 33.299c-.012-.359-.03-.717-.066-1.081-4.263 10.649-22.23 11.826-23.398-1.16-1.318-14.698 23.063-13.933 20.045-4.043.994-1.708 1.425-4.067 1.066-6.289-1.162-3.888-5.113-6.623-12.909-5.453-12.441 1.864-17.818 18.336-6.664 25.945 9.083 6.182 21.62 1.41 21.926-7.92z"/></g><g opacity=".45"><g opacity=".45"><path fill="url(#84b5o)" d="M43.603 20.763a7.594 7.594 0 0 0-1.048-2.18 7.253 7.253 0 0 0-1.704-1.709 8.558 8.558 0 0 0-2.15-1.107 9.96 9.96 0 0 0-1.162-.34c-.393-.089-.793-.166-1.192-.22-1.602-.214-3.235-.16-4.837.03-.4.048-.804.107-1.198.179-.399.071-.792.16-1.185.262a14.473 14.473 0 0 0-6.28 3.52 15.326 15.326 0 0 0-2.93 3.834 14.959 14.959 0 0 0-1.585 4.555 13.775 13.775 0 0 0-.006 4.818 12.77 12.77 0 0 0 1.71 4.501 13.81 13.81 0 0 0 3.217 3.591c1.269 1 2.687 1.816 4.194 2.394 1.507.578 3.11.923 4.724 1.018 1.615.096 3.241-.06 4.808-.47a13.789 13.789 0 0 0 4.39-2.007c1.323-.923 2.473-2.12 3.277-3.525.405-.703.72-1.453.941-2.227.22-.78.34-1.584.37-2.394a9.865 9.865 0 0 1-.364 2.394c-.214.78-.53 1.53-.935 2.233-.804 1.411-1.948 2.608-3.27 3.537a13.774 13.774 0 0 1-4.397 2.013c-1.567.41-3.2.571-4.82.476a15.925 15.925 0 0 1-4.736-1.018 16.062 16.062 0 0 1-4.212-2.4c-1.269-1.006-2.383-2.215-3.235-3.603a12.997 12.997 0 0 1-1.722-4.52 13.91 13.91 0 0 1 .012-4.84 15.25 15.25 0 0 1 1.597-4.574 15.292 15.292 0 0 1 2.943-3.847 14.65 14.65 0 0 1 4.015-2.703 14.722 14.722 0 0 1 3.473-1.078c.4-.071.799-.125 1.204-.179 1.608-.19 3.24-.244 4.85-.023a11.41 11.41 0 0 1 2.365.566 8.777 8.777 0 0 1 2.15 1.113 7.167 7.167 0 0 1 1.698 1.72 8.372 8.372 0 0 1 1.03 2.21z"/></g></g></g></g></svg>