<svg xmlns="http://www.w3.org/2000/svg" width="32" height="28" viewBox="0 0 32 28"><g><g><path d="M27.462 15.75H9.367L7.398 5.25H29.65zm-2.087 10.5c-.965 0-1.75-.785-1.75-1.75s.785-1.75 1.75-1.75 1.75.785 1.75 1.75-.785 1.75-1.75 1.75zm-12.25-1.75c0 .965-.785 1.75-1.75 1.75s-1.75-.785-1.75-1.75.785-1.75 1.75-1.75 1.75.785 1.75 1.75zm17.062-21H7.07l-.455-2.43A1.313 1.313 0 0 0 5.325 0H.655A.656.656 0 0 0 0 .656v.438c0 .362.294.656.656.656h4.305l3.824 20.395a3.5 3.5 0 1 0 5.62.605h7.94a3.5 3.5 0 1 0 5.47-.758A1.313 1.313 0 0 0 26.54 21h-16.19l-.656-3.5h18.122c.622 0 1.159-.436 1.285-1.045l2.37-11.375a1.313 1.313 0 0 0-1.285-1.58z"/></g></g></svg>