<svg xmlns="http://www.w3.org/2000/svg" width="18" height="18" viewBox="0 0 18 18"><defs><clipPath id="xv3ha"><path fill="#fff" d="M0 2a2 2 0 0 1 2-2h14a2 2 0 0 1 2 2v14a2 2 0 0 1-2 2H2a2 2 0 0 1-2-2z"/></clipPath></defs><g><g><path fill="#fff" d="M0 2a2 2 0 0 1 2-2h14a2 2 0 0 1 2 2v14a2 2 0 0 1-2 2H2a2 2 0 0 1-2-2z"/><path fill="none" stroke="#d4d1d1" stroke-miterlimit="50" stroke-width="2" d="M0 2a2 2 0 0 1 2-2h14a2 2 0 0 1 2 2v14a2 2 0 0 1-2 2H2a2 2 0 0 1-2-2z" clip-path="url(&quot;#xv3ha&quot;)"/></g></g></svg>