<svg xmlns="http://www.w3.org/2000/svg" width="28" height="28" viewBox="0 0 28 28"><g><g><path d="M28 24.5v1.75c0 .968-.782 1.75-1.75 1.75H1.75C.782 28 0 27.218 0 26.25V24.5a7 7 0 0 1 7-7c5.048 0 3.894.875 7 .875 3.117 0 1.947-.875 7-.875a7 7 0 0 1 7 7zM21.875 7.875A7.877 7.877 0 0 1 14 15.75a7.877 7.877 0 0 1-7.875-7.875A7.877 7.877 0 0 1 14 0a7.877 7.877 0 0 1 7.875 7.875zM21 19.25c-4.654 0-3.67.875-7 .875-3.32 0-2.352-.875-7-.875a5.258 5.258 0 0 0-5.25 5.25v1.75h24.5V24.5A5.258 5.258 0 0 0 21 19.25zm-7-17.5a6.129 6.129 0 0 0-6.125 6.125A6.129 6.129 0 0 0 14 14a6.129 6.129 0 0 0 6.125-6.125A6.129 6.129 0 0 0 14 1.75z"/></g></g></svg>