<svg xmlns="http://www.w3.org/2000/svg" width="28" height="28" viewBox="0 0 28 28"><g><g><g><path d="M11.353 20.96a9.6 9.6 0 0 1-9.606-9.607 9.6 9.6 0 0 1 9.606-9.606 9.6 9.6 0 0 1 9.606 9.606 9.6 9.6 0 0 1-9.606 9.606zm16.401 5.326l-7.04-7.04a.648.648 0 0 0-.464-.192h-.563a11.303 11.303 0 0 0 3.019-7.701C22.706 5.08 17.624 0 11.353 0 5.08 0 0 5.081 0 11.353c0 6.271 5.081 11.353 11.353 11.353 2.974 0 5.676-1.147 7.701-3.013v.557c0 .174.071.338.191.463l7.041 7.041a.656.656 0 0 0 .928 0l.54-.54a.656.656 0 0 0 0-.928z"/></g></g></g></svg>